<?xml version="1.0" encoding="UTF-8"?>
<svg id="Capa_1" data-name="Capa 1" xmlns="http://www.w3.org/2000/svg" viewBox="0 0 497 268.09">
  <defs>
    <style>
      .cls-1 {
        fill: #003669;
        fill-rule: evenodd;
        stroke-width: 0px;
      }
    </style>
  </defs>
  <path class="cls-1" d="m216.86,46.19c-.27-12.46-10.28-24.65,1.51-34.35,13.16-10.8,22.06,0,29.87,5.54,7.4-5.12,10.69-13.02,24.67-8.45,18.23,5.82,18.36,37.12-28.23,59.55l-.41,23.68c-37.41,2.91-40.42,23.82-57.42,46.12-24.53,32.13-123.33,76.86-165.67,96.81-8.08,3.88-29.19,18.56-17.95,30.47,3.7,3.74,48.65,1.38,56.73,1.38h406.3c8.63,0,21.93,3.32,27-1.38,19.32-19.11-41.93-41.55-51.94-46.26-33.57-16.07-110.72-54.01-130.87-79.91-17.68-22.85-20.69-44.18-58.38-47.23v-18.14c15.62-11.08,27.54-16.9,35.63-32.27,9.87-18.97,1.37-39.33-18.09-41.27-15.9-1.66-15.07,7.48-25.35,3.74-9.73-3.46-14.8-6.92-26.45-1.11-12.88,6.37-16.31,21.05-10.96,34.76,2.74,7.06,3.01,7.48,10,8.45h0v-.14ZM34.61,257.67l427.68.28c-10.96-8.59-39.19-21.74-52.48-28.81-25.35-13.57-154.03-85.31-161.56-85.31-8.22,0-92.09,48.2-107.3,56.09l-106.34,57.75h0Z"/>
</svg>